HIERARCHY
ROOT Hips
{
	OFFSET 0.000000 0.000000 0.000000
	CHANNELS 6 Xposition Yposition Zposition Xrotation Yrotation Zrotation
	JOINT LeftUpLeg_virtual
	{
		OFFSET 0.000000 0.000000 0.000000
		CHANNELS 3 Xrotation Yrotation Zrotation
		JOINT LeftUpLeg
		{
			OFFSET 11.394100 -6.187798 -0.413800
			CHANNELS 3 Xrotation Yrotation Zrotation
			JOINT LeftLeg
			{
				OFFSET 0.430247 -32.302673 3.732800
				CHANNELS 3 Xrotation Yrotation Zrotation
				JOINT LeftFoot
				{
					OFFSET -0.430247 -48.264931 -6.423300
					CHANNELS 3 Xrotation Yrotation Zrotation
					JOINT LeftToeBase
					{
						OFFSET 4.230900 -16.068199 23.438400
						CHANNELS 3 Xrotation Yrotation Zrotation
						JOINT LeftToe_End
						{
							OFFSET 4.510700 0.695400 19.974600
							CHANNELS 3 Xrotation Yrotation Zrotation
							End Site
							{
								OFFSET 0 0 0
							}
						}
					}
				}
			}
		}
	}
	JOINT RightUpLeg_virtual
	{
		OFFSET 0.000000 0.000000 0.000000
		CHANNELS 3 Xrotation Yrotation Zrotation
		JOINT RightUpLeg
		{
			OFFSET -11.333700 -6.187798 -0.413800
			CHANNELS 3 Xrotation Yrotation Zrotation
			JOINT RightLeg
			{
				OFFSET -0.430392 -32.302628 3.733000
				CHANNELS 3 Xrotation Yrotation Zrotation
				JOINT RightFoot
				{
					OFFSET 0.430392 -48.264973 -6.423500
					CHANNELS 3 Xrotation Yrotation Zrotation
					JOINT RightToeBase
					{
						OFFSET -4.230900 -16.068199 23.438400
						CHANNELS 3 Xrotation Yrotation Zrotation
						JOINT RightToe_End
						{
							OFFSET -4.510700 0.695400 19.974600
							CHANNELS 3 Xrotation Yrotation Zrotation
							End Site
							{
								OFFSET 0 0 0
							}
						}
					}
				}
			}
		}
	}
	JOINT Spine_virtual
	{
		OFFSET 0.000000 0.000000 0.000000
		CHANNELS 3 Xrotation Yrotation Zrotation
		JOINT Spine
		{
			OFFSET -0.002400 12.777504 0.315300
			CHANNELS 3 Xrotation Yrotation Zrotation
			JOINT Spine1
			{
				OFFSET -0.002067 5.816869 0.032633
				CHANNELS 3 Xrotation Yrotation Zrotation
				JOINT Spine1_split
				{
					OFFSET -0.002067 5.816869 0.032633
					CHANNELS 3 Xrotation Yrotation Zrotation
					JOINT Spine2
					{
						OFFSET -0.002067 5.816869 0.032633
						CHANNELS 3 Xrotation Yrotation Zrotation
						JOINT Neck_virtual
						{
							OFFSET 0.000000 0.000000 0.000000
							CHANNELS 3 Xrotation Yrotation Zrotation
							JOINT Neck
							{
								OFFSET -0.003700 21.199493 -0.826900
								CHANNELS 3 Xrotation Yrotation Zrotation
								JOINT Head
								{
									OFFSET 0.000000 20.442200 4.834800
									CHANNELS 3 Xrotation Yrotation Zrotation
									JOINT HeadTop_End
									{
										OFFSET 0.000000 34.668396 4.968400
										CHANNELS 3 Xrotation Yrotation Zrotation
										End Site
										{
											OFFSET 0 0 0
										}
									}
								}
							}
						}
						JOINT LeftShoulder_virtual
						{
							OFFSET 0.000000 0.000000 0.000000
							CHANNELS 3 Xrotation Yrotation Zrotation
							JOINT LeftShoulder
							{
								OFFSET 3.288150 8.794197 -1.372250
								CHANNELS 3 Xrotation Yrotation Zrotation
								JOINT LeftShoulder_split
								{
									OFFSET 3.288150 8.794197 -1.372250
									CHANNELS 3 Xrotation Yrotation Zrotation
									JOINT LeftArm
									{
										OFFSET 11.953299 -2.279007 -0.146200
										CHANNELS 3 Xrotation Yrotation Zrotation
										JOINT LeftForeArm
										{
											OFFSET 18.448900 0.000000 0.000000
											CHANNELS 3 Xrotation Yrotation Zrotation
											JOINT LeftHand
											{
												OFFSET 29.527798 0.000000 0.000000
												CHANNELS 3 Xrotation Yrotation Zrotation
												End Site
												{
													OFFSET 0 0 0
												}
											}
										}
									}
								}
							}
						}
						JOINT RightShoulder_virtual
						{
							OFFSET 0.000000 0.000000 0.000000
							CHANNELS 3 Xrotation Yrotation Zrotation
							JOINT RightShoulder
							{
								OFFSET -3.249400 8.794197 -1.372250
								CHANNELS 3 Xrotation Yrotation Zrotation
								JOINT RightShoulder_split
								{
									OFFSET -3.249400 8.794197 -1.372250
									CHANNELS 3 Xrotation Yrotation Zrotation
									JOINT RightArm
									{
										OFFSET -11.953299 -2.279007 -0.146200
										CHANNELS 3 Xrotation Yrotation Zrotation
										JOINT RightForeArm
										{
											OFFSET -18.448900 0.000000 0.000000
											CHANNELS 3 Xrotation Yrotation Zrotation
											JOINT RightHand
											{
												OFFSET -29.527802 0.000000 0.000000
												CHANNELS 3 Xrotation Yrotation Zrotation
												End Site
												{
													OFFSET 0 0 0
												}
											}
										}
									}
								}
							}
						}
					}
				}
			}
		}
	}
}
MOTION
Frames: 8
Frame Time: 0.03333333
-0.276837 99.848831 -0.111725 0.000000 0.000000 0.000000 -7.172101 -4.271095 3.190969 -10.150076 11.568352 5.555142 11.855373 7.607757 1.460176 6.621768 0.077053 -6.119313 -0.000009 -0.000002 -0.000003 0.000000 0.000000 0.000000 -7.172101 -4.271095 3.190969 1.323276 -15.435719 -6.603566 20.322651 -9.259224 -3.379438 -14.678944 -5.325630 7.228885 -2.342331 0.000005 0.000004 0.000000 0.000000 0.000000 -7.172101 -4.271095 3.190969 5.280569 2.109175 -2.291090 1.478230 0.730365 -0.788770 0.000000 0.000000 0.000000 0.000000 0.000000 0.000000 1.440798 0.721971 -0.741220 2.260305 5.360284 1.627124 3.299470 -10.639883 2.336762 0.000000 0.000000 0.000000 1.440798 0.721971 -0.741220 -0.595444 -16.332003 -20.041822 0.000000 0.000000 0.000000 11.139994 0.583285 -33.762390 -0.098416 -89.545870 -0.097523 0.000000 0.000000 0.000000 1.440798 0.721971 -0.741220 0.754163 18.436590 11.539476 0.000000 0.000000 0.000000 10.691744 23.557111 38.362198 179.999896 82.036145 -179.999909 0.000000 0.000000 0.000000 
0.043057 99.507484 -0.194542 0.000000 0.000000 0.000000 -7.006811 -4.582533 3.244041 -11.664632 11.442048 5.540248 14.062823 7.198010 1.468327 5.784791 0.893320 -6.095766 -0.000026 -0.000007 -0.000001 0.000000 0.000000 0.000000 -7.006811 -4.582533 3.244041 -0.154951 -15.115446 -7.226980 22.150034 -9.079024 -3.386262 -15.189166 -5.375766 7.474162 -2.342331 0.000003 0.000004 0.000000 0.000000 0.000000 -7.006811 -4.582533 3.244041 5.277658 1.975574 -2.325961 1.478230 0.545823 -0.771255 0.000000 0.000000 0.000000 0.000000 0.000000 0.000000 1.440799 0.547799 -0.686543 2.278949 5.079154 1.446695 3.068804 -10.293893 2.008880 0.000000 0.000000 0.000000 1.440799 0.547799 -0.686543 -0.595444 -16.331998 -20.041821 0.000000 0.000000 0.000000 11.673890 1.386652 -33.751072 -7.480410 -89.980215 -7.479207 0.000000 0.000000 0.000000 1.440799 0.547799 -0.686543 0.748015 18.465157 11.541427 0.000000 0.000000 0.000000 10.484197 24.073589 38.792947 179.999978 82.426217 179.999964 0.000000 0.000000 0.000000 
0.324816 99.203773 -0.288883 0.000000 0.000000 0.000000 -6.839909 -4.886213 3.321826 -12.924110 11.356368 5.463603 15.833584 6.710984 1.486671 5.136410 1.770261 -6.064588 -0.000021 -0.000002 -0.000000 0.000000 0.000000 0.000000 -6.839909 -4.886213 3.321826 -1.500620 -14.801339 -7.801521 23.752394 -8.903178 -3.388143 -15.616184 -5.414691 7.676795 -2.342331 0.000005 0.000004 0.000000 0.000000 0.000000 -6.839909 -4.886213 3.321826 5.275790 1.856605 -2.381234 1.478231 0.373632 -0.754921 0.000000 0.000000 0.000000 0.000000 0.000000 0.000000 1.440799 0.385385 -0.635565 2.296012 4.796856 1.267086 2.850220 -9.940148 1.700443 0.000000 0.000000 0.000000 1.440799 0.385385 -0.635565 -0.595444 -16.332002 -20.041821 0.000000 0.000000 0.000000 12.260825 2.275649 -33.762626 -179.951948 -89.544572 -179.951169 0.000000 0.000000 0.000000 1.440799 0.385385 -0.635565 0.745095 18.495001 11.543411 0.000000 0.000000 0.000000 10.252224 24.630861 39.267454 -179.999254 82.846889 179.999240 0.000000 0.000000 0.000000 
0.633343 98.905945 -0.378616 0.000000 0.000000 0.000000 -6.673065 -5.201414 3.404898 -14.106425 11.295369 5.345911 17.486497 6.184402 1.505595 4.527980 2.699213 -5.999619 -0.000042 -0.000002 -0.000002 0.000000 0.000000 0.000000 -6.673065 -5.201414 3.404898 -2.798473 -14.480489 -8.383422 25.266977 -8.703577 -3.385448 -15.998023 -5.451799 7.885834 -2.342331 0.000004 0.000004 0.000000 0.000000 0.000000 -6.673065 -5.201414 3.404898 5.274133 1.724783 -2.444463 1.476995 0.189088 -0.737423 0.000000 0.000000 0.000000 0.000000 0.000000 0.000000 1.440799 0.211210 -0.580904 2.311596 4.515614 1.086977 2.627178 -9.591971 1.375071 0.000000 0.000000 0.000000 1.440799 0.211210 -0.580904 -0.595444 -16.331997 -20.041821 0.000000 0.000000 0.000000 12.881842 3.223689 -33.784964 179.994841 -89.027629 179.995019 0.000000 0.000000 0.000000 1.440799 0.211210 -0.580904 0.747687 18.526427 11.539870 0.000000 0.000000 0.000000 9.993132 25.212699 39.777324 179.999704 83.290537 -179.999704 0.000000 0.000000 0.000000 
1.029977 98.593521 -0.450336 0.000000 0.000000 0.000000 -6.507779 -5.549014 3.483765 -15.302241 11.259150 5.180393 19.195862 5.654086 1.522324 3.869209 3.671290 -5.870821 -0.000016 0.000002 -0.000005 0.000000 0.000000 0.000000 -6.507779 -5.549014 3.483765 -4.101858 -14.134099 -9.025138 26.772526 -8.453974 -3.383924 -16.347887 -5.494635 8.142564 -2.342331 0.000003 0.000004 0.000000 0.000000 0.000000 -6.507779 -5.549014 3.483765 5.272308 1.553291 -2.513135 1.473639 -0.032508 -0.716422 0.000000 0.000000 0.000000 0.000000 0.000000 0.000000 1.440415 0.001753 -0.515178 2.325797 4.237668 0.905045 2.383497 -9.262443 0.996371 0.000000 0.000000 0.000000 1.440415 0.001753 -0.515178 -0.595444 -16.331997 -20.041819 0.000000 0.000000 0.000000 13.506011 4.185170 -33.816290 179.998543 -88.490135 179.998434 0.000000 0.000000 0.000000 1.440415 0.001753 -0.515178 0.746112 18.573409 11.536198 0.000000 0.000000 0.000000 9.710938 25.784833 40.290473 179.999704 83.749498 -179.999677 0.000000 0.000000 0.000000 
1.652619 98.229156 -0.475166 0.000000 0.000000 0.000000 -6.347444 -5.977967 3.543301 -16.640485 11.263882 4.924274 21.228636 5.185711 1.536640 3.006890 4.680711 -5.603238 -0.000051 0.000000 -0.000001 0.000000 0.000000 0.000000 -6.347444 -5.977967 3.543301 -5.495667 -13.711911 -9.834847 28.384391 -8.103366 -3.385316 -16.668438 -5.558348 8.544517 -2.342331 0.000002 0.000004 0.000000 0.000000 0.000000 -6.347444 -5.977967 3.543301 5.264898 1.281190 -2.588135 1.469927 -0.347770 -0.686563 0.000000 0.000000 0.000000 0.000000 0.000000 0.000000 1.439188 -0.296886 -0.421479 2.338821 3.968125 0.718276 2.076513 -8.981389 0.444607 0.000000 0.000000 0.000000 1.439188 -0.296886 -0.421479 -0.595444 -16.332000 -20.041822 0.000000 0.000000 0.000000 14.143412 5.159101 -33.861786 -179.998079 -87.939765 -179.998147 0.000000 0.000000 0.000000 1.439188 -0.296886 -0.421479 0.742949 18.624753 11.531558 0.000000 0.000000 0.000000 9.417969 26.358701 40.802471 -179.999745 84.216157 179.999718 0.000000 0.000000 0.000000 
2.401955 97.855087 -0.560425 0.000000 0.000000 0.000000 -6.215023 -6.585534 3.564472 -17.945748 11.305159 4.637313 23.232456 4.882230 1.548035 2.155149 5.702912 -5.256605 -0.000043 0.000002 0.000001 0.000000 0.000000 0.000000 -6.215023 -6.585534 3.564472 -6.970907 -13.232644 -10.717532 29.999704 -7.551986 -3.387315 -16.884846 -5.615463 8.946426 -2.342331 0.000000 0.000004 0.000000 0.000000 0.000000 -6.215023 -6.585534 3.564472 5.248553 0.947661 -2.659093 1.466274 -0.693938 -0.653799 0.000000 0.000000 0.000000 0.000000 0.000000 0.000000 1.437499 -0.625325 -0.318443 2.349970 3.653183 0.533837 1.704135 -8.923802 -0.251371 0.000000 0.000000 0.000000 1.437499 -0.625325 -0.318443 -0.595444 -16.332002 -20.041821 0.000000 0.000000 0.000000 14.772002 6.174837 -33.883984 -179.998939 -87.312412 -179.998776 0.000000 0.000000 0.000000 1.437499 -0.625325 -0.318443 0.740163 18.657369 11.528115 0.000000 0.000000 0.000000 9.078631 26.933297 41.364828 -179.999390 84.686177 179.999363 0.000000 0.000000 0.000000 
3.105529 97.518860 -0.802704 0.000000 0.000000 0.000000 -6.114031 -7.360315 3.555241 -19.082539 11.352679 4.395397 24.862071 4.739933 1.557726 1.547328 6.715115 -4.936358 -0.000027 -0.000005 -0.000002 0.000000 0.000000 0.000000 -6.114031 -7.360315 3.555241 -8.495635 -12.743529 -11.522792 31.510630 -6.823190 -3.388716 -16.963127 -5.638587 9.194328 -2.342331 0.000002 0.000004 0.000000 0.000000 0.000000 -6.114031 -7.360315 3.555241 5.215558 0.617703 -2.725710 1.462905 -1.005096 -0.624367 0.000000 0.000000 0.000000 0.000000 0.000000 0.000000 1.435532 -0.920891 -0.225724 2.358290 3.262835 0.363709 1.305606 -9.183708 -0.970634 0.000000 0.000000 0.000000 1.435532 -0.920891 -0.225724 -0.595443 -16.332003 -20.041819 0.000000 0.000000 0.000000 15.350480 7.201445 -33.875358 179.999841 -86.635062 179.999937 0.000000 0.000000 0.000000 1.435532 -0.920891 -0.225724 0.740121 18.663712 11.528268 0.000000 0.000000 0.000000 8.677966 27.483401 42.006804 179.999623 85.171926 -179.999568 0.000000 0.000000 0.000000 
